<svg xmlns="http://www.w3.org/2000/svg" viewBox="0 0 812.06 847.95"><defs><style>.a{isolation:isolate;}.b{opacity:0.5;mix-blend-mode:multiply;}.c{fill:#07688a;}.d{fill:#fff;}.e{fill:#00aeef;}.f{fill:#5e0000;}.g{fill:#ed1c24;}.h{fill:#ef4136;}.i{fill:#645e00;}.j{fill:#fff200;}</style></defs><g class="a"><g class="b"><circle class="c" cx="408.15" cy="429.76" r="364"/><path class="c" d="M907.26,894.4A372.83,372.83,0,1,1,1052.84,865,371.79,371.79,0,0,1,907.26,894.4Zm0-728c-195.19,0-354,158.81-354,354s158.81,354,354,354,354-158.8,354-354S1102.46,166.4,907.26,166.4Z" transform="translate(-499.11 -90.64)"/><path class="c" d="M750.58,657.4h81.9c14.68,0,22,8.47,19.2,23.15l-2.83,17c-2.82,14.68-12.42,23.15-27.1,23.15H679.42c-14.69,0-22-8.47-19.2-23.15L724,334.9c2.82-14.68,12.42-23.16,27.11-23.16h37.27c14.69,0,22,8.48,19.21,23.16Z" transform="translate(-499.11 -90.64)"/><path class="c" d="M1140.28,455.77c-2.26,14.68-12.42,23.15-27.11,23.15H1075.9c-14.69,0-21.47-8.47-19.21-23.15l10.17-57c2.82-15.25-5.08-26.54-23.72-26.54s-29.93,11.29-32.76,26.54L969.15,633.67c-2.82,15.25,4.52,26.55,23.16,26.55s30.5-11.3,33.32-26.55l9.6-57c2.83-14.68,13-23.16,27.68-23.16h37.27c14.69,0,21.46,8.48,18.64,23.16l-9.6,57c-11.3,61.57-54.79,89.81-127.64,89.81s-107.31-28.24-96-89.81l41.23-234.95c10.73-61.56,54.79-89.8,127.64-89.8s106.75,28.24,96,89.8Z" transform="translate(-499.11 -90.64)"/><path class="c" d="M740.58,648.4h81.9c14.68,0,22,8.47,19.2,23.15l-2.83,17c-2.82,14.68-12.42,23.15-27.1,23.15H669.42c-14.69,0-22-8.47-19.2-23.15L714,325.9c2.82-14.68,12.42-23.16,27.11-23.16h37.27c14.69,0,22,8.48,19.21,23.16Z" transform="translate(-499.11 -90.64)"/><path class="c" d="M1130.28,446.77c-2.26,14.68-12.42,23.15-27.11,23.15H1065.9c-14.69,0-21.47-8.47-19.21-23.15l10.17-57c2.82-15.25-5.08-26.54-23.72-26.54s-29.93,11.29-32.76,26.54L959.15,624.67c-2.82,15.25,4.52,26.55,23.16,26.55s30.5-11.3,33.32-26.55l9.6-57c2.83-14.68,13-23.16,27.68-23.16h37.27c14.69,0,21.46,8.48,18.64,23.16l-9.6,57c-11.3,61.57-54.79,89.81-127.64,89.81s-107.31-28.24-96-89.81l41.23-234.95c10.73-61.56,54.79-89.8,127.64-89.8s106.75,28.24,96,89.8Z" transform="translate(-499.11 -90.64)"/><path class="c" d="M506,466.71c-5.38-42.84.57-85.76,17.69-127.57,16.48-40.24,42.56-77.77,77.52-111.52,71.59-69.14,172.57-114.95,284.34-129L887,109.56c-109.42,13.73-208.17,58.47-278.07,126-69.47,67.09-102.12,148.7-91.94,229.81Z" transform="translate(-499.11 -90.64)"/><path class="c" d="M965.77,938.59l-1.27-10.14C1063.9,916,1153.44,874,1216.65,810.27c62.87-63.4,92.16-140.82,82.47-218l10.15-1.28c5.1,40.67-.09,81.36-15.43,121-14.78,38.13-38.31,73.63-69.93,105.52C1159.1,882.82,1067.43,925.83,965.77,938.59Z" transform="translate(-499.11 -90.64)"/><circle class="c" cx="580.15" cy="422.76" r="15"/><circle class="c" cx="577.15" cy="417.76" r="15"/><circle class="c" cx="218.59" cy="184.42" r="15"/><circle class="c" cx="635.15" cy="184.42" r="15"/><rect class="c" x="215.49" y="180.25" width="409.67" height="8.34" rx="4.17"/><circle class="c" cx="215.59" cy="179.42" r="15"/><circle class="c" cx="632.15" cy="179.42" r="15"/><rect class="c" x="212.49" y="175.25" width="409.67" height="8.34" rx="4.17"/><circle class="c" cx="203.59" cy="661.93" r="15"/><circle class="c" cx="635.15" cy="661.93" r="15"/><rect class="c" x="209.82" y="659.58" width="425.33" height="8.34" rx="4.17"/><circle class="c" cx="200.59" cy="656.93" r="15"/><circle class="c" cx="632.15" cy="656.93" r="15"/><rect class="c" x="206.82" y="654.58" width="425.33" height="8.34" rx="4.17"/></g><circle class="d" cx="403.15" cy="421.76" r="364"/><path class="e" d="M902.26,886.4A372.83,372.83,0,1,1,1047.84,857,371.79,371.79,0,0,1,902.26,886.4Zm0-728c-195.19,0-354,158.81-354,354s158.81,354,354,354,354-158.8,354-354S1097.46,158.4,902.26,158.4Z" transform="translate(-499.11 -90.64)"/><g class="b"><path class="f" d="M745.58,649.4h81.9c14.68,0,22,8.47,19.2,23.15l-2.83,17c-2.82,14.68-12.42,23.15-27.1,23.15H674.42c-14.69,0-22-8.47-19.2-23.15L719,326.9c2.82-14.68,12.42-23.16,27.11-23.16h37.27c14.69,0,22,8.48,19.21,23.16Z" transform="translate(-499.11 -90.64)"/><path class="f" d="M1135.28,447.77c-2.26,14.68-12.42,23.15-27.11,23.15H1070.9c-14.69,0-21.47-8.47-19.21-23.15l10.17-57c2.82-15.25-5.08-26.54-23.72-26.54s-29.93,11.29-32.76,26.54L964.15,625.67c-2.82,15.25,4.52,26.55,23.16,26.55s30.5-11.3,33.32-26.55l9.6-57c2.83-14.68,13-23.16,27.68-23.16h37.27c14.69,0,21.46,8.48,18.64,23.16l-9.6,57c-11.3,61.57-54.79,89.81-127.64,89.81s-107.31-28.24-96-89.81l41.23-234.95c10.73-61.56,54.79-89.8,127.64-89.8s106.75,28.24,96,89.8Z" transform="translate(-499.11 -90.64)"/></g><path class="g" d="M735.58,640.4h81.9c14.68,0,22,8.47,19.2,23.15l-2.83,17c-2.82,14.68-12.42,23.15-27.1,23.15H664.42c-14.69,0-22-8.47-19.2-23.15L709,317.9c2.82-14.68,12.42-23.16,27.11-23.16h37.27c14.69,0,22,8.48,19.21,23.16Z" transform="translate(-499.11 -90.64)"/><path class="g" d="M1125.28,438.77c-2.26,14.68-12.42,23.15-27.11,23.15H1060.9c-14.69,0-21.47-8.47-19.21-23.15l10.17-57c2.82-15.25-5.08-26.54-23.72-26.54s-29.93,11.29-32.76,26.54L954.15,616.67c-2.82,15.25,4.52,26.55,23.16,26.55s30.5-11.3,33.32-26.55l9.6-57c2.83-14.68,13-23.16,27.68-23.16h37.27c14.69,0,21.46,8.48,18.64,23.16l-9.6,57c-11.3,61.57-54.79,89.81-127.64,89.81s-107.31-28.24-96-89.81l41.23-234.95c10.73-61.56,54.79-89.8,127.64-89.8s106.75,28.24,96,89.8Z" transform="translate(-499.11 -90.64)"/><path class="h" d="M501,458.71c-5.38-42.84.57-85.76,17.69-127.57,16.48-40.24,42.56-77.77,77.52-111.52,71.59-69.14,172.57-114.95,284.34-129L882,101.56c-109.42,13.73-208.17,58.47-278.07,126-69.47,67.09-102.12,148.7-91.94,229.81Z" transform="translate(-499.11 -90.64)"/><path class="h" d="M960.77,930.59l-1.27-10.14C1058.9,908,1148.44,866,1211.65,802.27c62.87-63.4,92.16-140.82,82.47-218l10.15-1.28c5.1,40.67-.09,81.36-15.43,121-14.78,38.13-38.31,73.63-69.93,105.52C1154.1,874.82,1062.43,917.83,960.77,930.59Z" transform="translate(-499.11 -90.64)"/><g class="b"><circle class="i" cx="575.15" cy="414.76" r="15"/></g><circle class="j" cx="572.15" cy="409.76" r="15"/><g class="b"><circle class="i" cx="213.59" cy="176.42" r="15"/><circle class="i" cx="630.15" cy="176.42" r="15"/><rect class="i" x="210.49" y="172.25" width="409.67" height="8.34" rx="4.17"/></g><circle class="j" cx="210.59" cy="171.42" r="15"/><circle class="j" cx="627.15" cy="171.42" r="15"/><rect class="j" x="207.49" y="167.25" width="409.67" height="8.34" rx="4.17"/><g class="b"><circle class="i" cx="198.59" cy="653.93" r="15"/><circle class="i" cx="630.15" cy="653.93" r="15"/><rect class="i" x="204.82" y="651.58" width="425.33" height="8.34" rx="4.17"/></g><circle class="j" cx="195.59" cy="648.93" r="15"/><circle class="j" cx="627.15" cy="648.93" r="15"/><rect class="j" x="201.82" y="646.58" width="425.33" height="8.34" rx="4.17"/></g></svg>